<mxfile modified="2023-07-23T09:40:36.836Z" host="app.diagrams.net" agent="Mozilla/5.0 (Macintosh; Intel Mac OS X 10_15_7) AppleWebKit/605.1.15 (KHTML, like Gecko) Version/16.4.1 Safari/605.1.15" etag="T00qiUqZezYvz2CbSLBR" version="21.6.5" type="github" pages="3">
  <diagram id="Ht1M8jgEwFfnCIfOTk4-" name="Basic">
    <mxGraphModel dx="1434" dy="694" grid="1" gridSize="10" guides="1" tooltips="1" connect="1" arrows="1" fold="1" page="1" pageScale="1" pageWidth="1169" pageHeight="827" math="0" shadow="0">
      <root>
        <mxCell id="0" />
        <mxCell id="1" parent="0" />
        <mxCell id="UPWzEBOmqBI2GuT4OPap-6" style="edgeStyle=orthogonalEdgeStyle;rounded=0;orthogonalLoop=1;jettySize=auto;html=1;startArrow=classic;startFill=1;" parent="1" source="UPWzEBOmqBI2GuT4OPap-3" target="UPWzEBOmqBI2GuT4OPap-5" edge="1">
          <mxGeometry relative="1" as="geometry" />
        </mxCell>
        <mxCell id="UPWzEBOmqBI2GuT4OPap-3" value="devices" style="sketch=0;outlineConnect=0;gradientColor=none;fontColor=#545B64;strokeColor=none;fillColor=#879196;dashed=0;verticalLabelPosition=bottom;verticalAlign=top;align=center;html=1;fontSize=12;fontStyle=0;aspect=fixed;shape=mxgraph.aws4.illustration_devices;pointerEvents=1" parent="1" vertex="1">
          <mxGeometry x="70" y="280" width="100" height="73" as="geometry" />
        </mxCell>
        <mxCell id="UPWzEBOmqBI2GuT4OPap-8" style="edgeStyle=orthogonalEdgeStyle;rounded=0;orthogonalLoop=1;jettySize=auto;html=1;entryX=0;entryY=0.5;entryDx=0;entryDy=0;entryPerimeter=0;startArrow=classic;startFill=1;" parent="1" source="UPWzEBOmqBI2GuT4OPap-5" target="UPWzEBOmqBI2GuT4OPap-7" edge="1">
          <mxGeometry relative="1" as="geometry" />
        </mxCell>
        <mxCell id="UPWzEBOmqBI2GuT4OPap-5" value="Nginx" style="sketch=0;outlineConnect=0;fontColor=#232F3E;gradientColor=none;fillColor=#232F3D;strokeColor=none;dashed=0;verticalLabelPosition=bottom;verticalAlign=top;align=center;html=1;fontSize=12;fontStyle=0;aspect=fixed;pointerEvents=1;shape=mxgraph.aws4.traditional_server;" parent="1" vertex="1">
          <mxGeometry x="280" y="277.5" width="45" height="78" as="geometry" />
        </mxCell>
        <mxCell id="UPWzEBOmqBI2GuT4OPap-14" style="edgeStyle=elbowEdgeStyle;rounded=0;orthogonalLoop=1;jettySize=auto;html=1;exitX=0.5;exitY=0;exitDx=0;exitDy=0;exitPerimeter=0;startArrow=classic;startFill=1;" parent="1" source="UPWzEBOmqBI2GuT4OPap-7" target="UPWzEBOmqBI2GuT4OPap-9" edge="1">
          <mxGeometry relative="1" as="geometry">
            <Array as="points">
              <mxPoint x="499" y="200" />
            </Array>
          </mxGeometry>
        </mxCell>
        <mxCell id="UPWzEBOmqBI2GuT4OPap-16" style="edgeStyle=orthogonalEdgeStyle;rounded=0;orthogonalLoop=1;jettySize=auto;html=1;startArrow=classic;startFill=1;" parent="1" source="UPWzEBOmqBI2GuT4OPap-7" target="UPWzEBOmqBI2GuT4OPap-10" edge="1">
          <mxGeometry relative="1" as="geometry" />
        </mxCell>
        <mxCell id="UPWzEBOmqBI2GuT4OPap-17" style="edgeStyle=orthogonalEdgeStyle;rounded=0;orthogonalLoop=1;jettySize=auto;html=1;exitX=0.5;exitY=1;exitDx=0;exitDy=0;exitPerimeter=0;startArrow=classic;startFill=1;" parent="1" source="UPWzEBOmqBI2GuT4OPap-7" target="UPWzEBOmqBI2GuT4OPap-11" edge="1">
          <mxGeometry relative="1" as="geometry">
            <Array as="points">
              <mxPoint x="499" y="479" />
            </Array>
          </mxGeometry>
        </mxCell>
        <mxCell id="UPWzEBOmqBI2GuT4OPap-25" style="edgeStyle=orthogonalEdgeStyle;rounded=0;orthogonalLoop=1;jettySize=auto;html=1;startArrow=classic;startFill=1;" parent="1" source="UPWzEBOmqBI2GuT4OPap-9" target="UPWzEBOmqBI2GuT4OPap-22" edge="1">
          <mxGeometry relative="1" as="geometry" />
        </mxCell>
        <mxCell id="UPWzEBOmqBI2GuT4OPap-9" value="User ws" style="sketch=0;outlineConnect=0;fontColor=#232F3E;gradientColor=none;fillColor=#232F3D;strokeColor=none;dashed=0;verticalLabelPosition=bottom;verticalAlign=top;align=center;html=1;fontSize=12;fontStyle=0;aspect=fixed;pointerEvents=1;shape=mxgraph.aws4.traditional_server;" parent="1" vertex="1">
          <mxGeometry x="720" y="80" width="45" height="78" as="geometry" />
        </mxCell>
        <mxCell id="UPWzEBOmqBI2GuT4OPap-26" style="edgeStyle=orthogonalEdgeStyle;rounded=0;orthogonalLoop=1;jettySize=auto;html=1;startArrow=classic;startFill=1;" parent="1" source="UPWzEBOmqBI2GuT4OPap-10" target="UPWzEBOmqBI2GuT4OPap-23" edge="1">
          <mxGeometry relative="1" as="geometry" />
        </mxCell>
        <mxCell id="qwUDC26tIl2776AHkf4H-6" style="edgeStyle=orthogonalEdgeStyle;rounded=0;orthogonalLoop=1;jettySize=auto;html=1;entryX=0.5;entryY=0;entryDx=0;entryDy=0;entryPerimeter=0;fillColor=#f8cecc;strokeColor=#b85450;strokeWidth=2;" edge="1" parent="1" source="UPWzEBOmqBI2GuT4OPap-10" target="qwUDC26tIl2776AHkf4H-4">
          <mxGeometry relative="1" as="geometry" />
        </mxCell>
        <mxCell id="UPWzEBOmqBI2GuT4OPap-10" value="Inventory ws" style="sketch=0;outlineConnect=0;fontColor=#232F3E;gradientColor=none;fillColor=#232F3D;strokeColor=none;dashed=0;verticalLabelPosition=bottom;verticalAlign=top;align=center;html=1;fontSize=12;fontStyle=0;aspect=fixed;pointerEvents=1;shape=mxgraph.aws4.traditional_server;" parent="1" vertex="1">
          <mxGeometry x="720" y="277.5" width="45" height="78" as="geometry" />
        </mxCell>
        <mxCell id="UPWzEBOmqBI2GuT4OPap-27" style="edgeStyle=orthogonalEdgeStyle;rounded=0;orthogonalLoop=1;jettySize=auto;html=1;startArrow=classic;startFill=1;" parent="1" source="UPWzEBOmqBI2GuT4OPap-11" target="UPWzEBOmqBI2GuT4OPap-24" edge="1">
          <mxGeometry relative="1" as="geometry" />
        </mxCell>
        <mxCell id="qwUDC26tIl2776AHkf4H-5" style="edgeStyle=orthogonalEdgeStyle;rounded=0;orthogonalLoop=1;jettySize=auto;html=1;entryX=0;entryY=0.5;entryDx=0;entryDy=0;entryPerimeter=0;fillColor=#f8cecc;strokeColor=#b85450;strokeWidth=2;" edge="1" parent="1" source="UPWzEBOmqBI2GuT4OPap-11" target="qwUDC26tIl2776AHkf4H-4">
          <mxGeometry relative="1" as="geometry">
            <Array as="points">
              <mxPoint x="743" y="660" />
            </Array>
          </mxGeometry>
        </mxCell>
        <mxCell id="UPWzEBOmqBI2GuT4OPap-11" value="Order ws" style="sketch=0;outlineConnect=0;fontColor=#232F3E;gradientColor=none;fillColor=#232F3D;strokeColor=none;dashed=0;verticalLabelPosition=bottom;verticalAlign=top;align=center;html=1;fontSize=12;fontStyle=0;aspect=fixed;pointerEvents=1;shape=mxgraph.aws4.traditional_server;" parent="1" vertex="1">
          <mxGeometry x="720" y="440" width="45" height="78" as="geometry" />
        </mxCell>
        <mxCell id="UPWzEBOmqBI2GuT4OPap-18" value="" style="swimlane;startSize=0;" parent="1" vertex="1">
          <mxGeometry x="420" y="70" width="400" height="530" as="geometry">
            <mxRectangle x="420" y="40" width="50" height="40" as="alternateBounds" />
          </mxGeometry>
        </mxCell>
        <mxCell id="UPWzEBOmqBI2GuT4OPap-7" value="API gateway" style="sketch=0;points=[[0,0,0],[0.25,0,0],[0.5,0,0],[0.75,0,0],[1,0,0],[0,1,0],[0.25,1,0],[0.5,1,0],[0.75,1,0],[1,1,0],[0,0.25,0],[0,0.5,0],[0,0.75,0],[1,0.25,0],[1,0.5,0],[1,0.75,0]];outlineConnect=0;fontColor=#232F3E;gradientColor=#FF4F8B;gradientDirection=north;fillColor=#BC1356;strokeColor=#ffffff;dashed=0;verticalLabelPosition=bottom;verticalAlign=top;align=center;html=1;fontSize=12;fontStyle=0;aspect=fixed;shape=mxgraph.aws4.resourceIcon;resIcon=mxgraph.aws4.api_gateway;" parent="UPWzEBOmqBI2GuT4OPap-18" vertex="1">
          <mxGeometry x="40" y="207.5" width="78" height="78" as="geometry" />
        </mxCell>
        <mxCell id="UPWzEBOmqBI2GuT4OPap-19" value="API" style="text;html=1;align=center;verticalAlign=middle;resizable=0;points=[];autosize=1;strokeColor=none;fillColor=none;" parent="1" vertex="1">
          <mxGeometry x="460" y="73" width="40" height="30" as="geometry" />
        </mxCell>
        <mxCell id="UPWzEBOmqBI2GuT4OPap-20" value="" style="swimlane;startSize=0;" parent="1" vertex="1">
          <mxGeometry x="920" y="40" width="204.69" height="550" as="geometry" />
        </mxCell>
        <mxCell id="UPWzEBOmqBI2GuT4OPap-22" value="user db" style="image;aspect=fixed;perimeter=ellipsePerimeter;html=1;align=center;shadow=0;dashed=0;spacingTop=3;image=img/lib/active_directory/databases.svg;" parent="UPWzEBOmqBI2GuT4OPap-20" vertex="1">
          <mxGeometry x="60" y="41" width="78.57" height="77" as="geometry" />
        </mxCell>
        <mxCell id="UPWzEBOmqBI2GuT4OPap-21" value="DB" style="text;html=1;align=center;verticalAlign=middle;resizable=0;points=[];autosize=1;strokeColor=none;fillColor=none;" parent="UPWzEBOmqBI2GuT4OPap-20" vertex="1">
          <mxGeometry x="20" y="8" width="40" height="30" as="geometry" />
        </mxCell>
        <mxCell id="UPWzEBOmqBI2GuT4OPap-23" value="inventory db" style="image;aspect=fixed;perimeter=ellipsePerimeter;html=1;align=center;shadow=0;dashed=0;spacingTop=3;image=img/lib/active_directory/databases.svg;" parent="UPWzEBOmqBI2GuT4OPap-20" vertex="1">
          <mxGeometry x="63.059999999999945" y="238" width="78.57" height="77" as="geometry" />
        </mxCell>
        <mxCell id="UPWzEBOmqBI2GuT4OPap-24" value="order db" style="image;aspect=fixed;perimeter=ellipsePerimeter;html=1;align=center;shadow=0;dashed=0;spacingTop=3;image=img/lib/active_directory/databases.svg;" parent="UPWzEBOmqBI2GuT4OPap-20" vertex="1">
          <mxGeometry x="70" y="400" width="78.57" height="77" as="geometry" />
        </mxCell>
        <mxCell id="qwUDC26tIl2776AHkf4H-1" value="" style="swimlane;startSize=0;" vertex="1" parent="1">
          <mxGeometry x="217.5" y="80" width="170" height="510" as="geometry">
            <mxRectangle x="420" y="40" width="50" height="40" as="alternateBounds" />
          </mxGeometry>
        </mxCell>
        <mxCell id="qwUDC26tIl2776AHkf4H-3" value="Angular App" style="text;html=1;align=center;verticalAlign=middle;resizable=0;points=[];autosize=1;strokeColor=none;fillColor=none;" vertex="1" parent="qwUDC26tIl2776AHkf4H-1">
          <mxGeometry x="32.5" y="8" width="90" height="30" as="geometry" />
        </mxCell>
        <mxCell id="qwUDC26tIl2776AHkf4H-4" value="" style="sketch=0;aspect=fixed;pointerEvents=1;shadow=0;dashed=0;html=1;strokeColor=none;labelPosition=center;verticalLabelPosition=bottom;verticalAlign=top;align=center;fillColor=#00188D;shape=mxgraph.azure.queue_generic" vertex="1" parent="1">
          <mxGeometry x="820" y="640" width="133.33" height="40" as="geometry" />
        </mxCell>
      </root>
    </mxGraphModel>
  </diagram>
  <diagram name="Security-added" id="ke9YBreiVrhx3PVwzmAS">
    <mxGraphModel dx="1434" dy="694" grid="1" gridSize="10" guides="1" tooltips="1" connect="1" arrows="1" fold="1" page="1" pageScale="1" pageWidth="1169" pageHeight="827" math="0" shadow="0">
      <root>
        <mxCell id="tt6i470y0DUgGDLCI6VE-0" />
        <mxCell id="tt6i470y0DUgGDLCI6VE-1" parent="tt6i470y0DUgGDLCI6VE-0" />
        <mxCell id="tt6i470y0DUgGDLCI6VE-2" style="edgeStyle=orthogonalEdgeStyle;rounded=0;orthogonalLoop=1;jettySize=auto;html=1;startArrow=classic;startFill=1;" edge="1" parent="tt6i470y0DUgGDLCI6VE-1" source="tt6i470y0DUgGDLCI6VE-3" target="tt6i470y0DUgGDLCI6VE-5">
          <mxGeometry relative="1" as="geometry" />
        </mxCell>
        <mxCell id="tt6i470y0DUgGDLCI6VE-3" value="devices" style="sketch=0;outlineConnect=0;gradientColor=none;fontColor=#545B64;strokeColor=none;fillColor=#879196;dashed=0;verticalLabelPosition=bottom;verticalAlign=top;align=center;html=1;fontSize=12;fontStyle=0;aspect=fixed;shape=mxgraph.aws4.illustration_devices;pointerEvents=1" vertex="1" parent="tt6i470y0DUgGDLCI6VE-1">
          <mxGeometry x="70" y="280" width="100" height="73" as="geometry" />
        </mxCell>
        <mxCell id="tt6i470y0DUgGDLCI6VE-4" style="edgeStyle=orthogonalEdgeStyle;rounded=0;orthogonalLoop=1;jettySize=auto;html=1;entryX=0;entryY=0.5;entryDx=0;entryDy=0;entryPerimeter=0;startArrow=classic;startFill=1;" edge="1" parent="tt6i470y0DUgGDLCI6VE-1" source="tt6i470y0DUgGDLCI6VE-5" target="tt6i470y0DUgGDLCI6VE-18">
          <mxGeometry relative="1" as="geometry" />
        </mxCell>
        <mxCell id="OG4pr53s2dd90bSgwPJ0-0" value="JWT" style="edgeLabel;html=1;align=center;verticalAlign=middle;resizable=0;points=[];" vertex="1" connectable="0" parent="tt6i470y0DUgGDLCI6VE-4">
          <mxGeometry x="0.1562" relative="1" as="geometry">
            <mxPoint y="1" as="offset" />
          </mxGeometry>
        </mxCell>
        <mxCell id="zYAENgjp94eRGcQaF9xb-4" style="edgeStyle=orthogonalEdgeStyle;rounded=0;orthogonalLoop=1;jettySize=auto;html=1;entryX=0.5;entryY=1;entryDx=0;entryDy=0;startArrow=classic;startFill=1;fillColor=#e1d5e7;strokeColor=#9673a6;strokeWidth=2;" edge="1" parent="tt6i470y0DUgGDLCI6VE-1" source="tt6i470y0DUgGDLCI6VE-5" target="zYAENgjp94eRGcQaF9xb-1">
          <mxGeometry relative="1" as="geometry" />
        </mxCell>
        <mxCell id="zYAENgjp94eRGcQaF9xb-5" value="authorization" style="edgeLabel;html=1;align=center;verticalAlign=middle;resizable=0;points=[];" vertex="1" connectable="0" parent="zYAENgjp94eRGcQaF9xb-4">
          <mxGeometry x="0.5053" relative="1" as="geometry">
            <mxPoint x="1" as="offset" />
          </mxGeometry>
        </mxCell>
        <mxCell id="tt6i470y0DUgGDLCI6VE-5" value="Nginx" style="sketch=0;outlineConnect=0;fontColor=#232F3E;gradientColor=none;fillColor=#232F3D;strokeColor=none;dashed=0;verticalLabelPosition=bottom;verticalAlign=top;align=center;html=1;fontSize=12;fontStyle=0;aspect=fixed;pointerEvents=1;shape=mxgraph.aws4.traditional_server;" vertex="1" parent="tt6i470y0DUgGDLCI6VE-1">
          <mxGeometry x="280" y="277.5" width="45" height="78" as="geometry" />
        </mxCell>
        <mxCell id="tt6i470y0DUgGDLCI6VE-6" style="edgeStyle=elbowEdgeStyle;rounded=0;orthogonalLoop=1;jettySize=auto;html=1;exitX=0.5;exitY=0;exitDx=0;exitDy=0;exitPerimeter=0;startArrow=none;startFill=0;" edge="1" parent="tt6i470y0DUgGDLCI6VE-1" source="tt6i470y0DUgGDLCI6VE-18" target="tt6i470y0DUgGDLCI6VE-10">
          <mxGeometry relative="1" as="geometry">
            <Array as="points">
              <mxPoint x="499" y="200" />
            </Array>
          </mxGeometry>
        </mxCell>
        <mxCell id="OG4pr53s2dd90bSgwPJ0-1" value="JWT" style="edgeLabel;html=1;align=center;verticalAlign=middle;resizable=0;points=[];" vertex="1" connectable="0" parent="tt6i470y0DUgGDLCI6VE-6">
          <mxGeometry x="0.3834" y="2" relative="1" as="geometry">
            <mxPoint as="offset" />
          </mxGeometry>
        </mxCell>
        <mxCell id="tt6i470y0DUgGDLCI6VE-7" style="edgeStyle=orthogonalEdgeStyle;rounded=0;orthogonalLoop=1;jettySize=auto;html=1;startArrow=classic;startFill=1;" edge="1" parent="tt6i470y0DUgGDLCI6VE-1" source="tt6i470y0DUgGDLCI6VE-18" target="tt6i470y0DUgGDLCI6VE-13">
          <mxGeometry relative="1" as="geometry" />
        </mxCell>
        <mxCell id="OG4pr53s2dd90bSgwPJ0-2" value="JWT" style="edgeLabel;html=1;align=center;verticalAlign=middle;resizable=0;points=[];" vertex="1" connectable="0" parent="tt6i470y0DUgGDLCI6VE-7">
          <mxGeometry x="-0.1323" y="-1" relative="1" as="geometry">
            <mxPoint y="1" as="offset" />
          </mxGeometry>
        </mxCell>
        <mxCell id="tt6i470y0DUgGDLCI6VE-8" style="edgeStyle=orthogonalEdgeStyle;rounded=0;orthogonalLoop=1;jettySize=auto;html=1;exitX=0.5;exitY=1;exitDx=0;exitDy=0;exitPerimeter=0;startArrow=none;startFill=0;" edge="1" parent="tt6i470y0DUgGDLCI6VE-1" source="tt6i470y0DUgGDLCI6VE-18" target="tt6i470y0DUgGDLCI6VE-16">
          <mxGeometry relative="1" as="geometry">
            <Array as="points">
              <mxPoint x="499" y="479" />
            </Array>
          </mxGeometry>
        </mxCell>
        <mxCell id="OG4pr53s2dd90bSgwPJ0-3" value="JWT" style="edgeLabel;html=1;align=center;verticalAlign=middle;resizable=0;points=[];" vertex="1" connectable="0" parent="tt6i470y0DUgGDLCI6VE-8">
          <mxGeometry x="0.4194" y="-2" relative="1" as="geometry">
            <mxPoint x="1" as="offset" />
          </mxGeometry>
        </mxCell>
        <mxCell id="tt6i470y0DUgGDLCI6VE-9" style="edgeStyle=orthogonalEdgeStyle;rounded=0;orthogonalLoop=1;jettySize=auto;html=1;startArrow=classic;startFill=1;" edge="1" parent="tt6i470y0DUgGDLCI6VE-1" source="tt6i470y0DUgGDLCI6VE-10" target="tt6i470y0DUgGDLCI6VE-21">
          <mxGeometry relative="1" as="geometry" />
        </mxCell>
        <mxCell id="tt6i470y0DUgGDLCI6VE-10" value="User ws" style="sketch=0;outlineConnect=0;fontColor=#232F3E;gradientColor=none;fillColor=#232F3D;strokeColor=none;dashed=0;verticalLabelPosition=bottom;verticalAlign=top;align=center;html=1;fontSize=12;fontStyle=0;aspect=fixed;pointerEvents=1;shape=mxgraph.aws4.traditional_server;" vertex="1" parent="tt6i470y0DUgGDLCI6VE-1">
          <mxGeometry x="720" y="80" width="45" height="78" as="geometry" />
        </mxCell>
        <mxCell id="tt6i470y0DUgGDLCI6VE-11" style="edgeStyle=orthogonalEdgeStyle;rounded=0;orthogonalLoop=1;jettySize=auto;html=1;startArrow=classic;startFill=1;" edge="1" parent="tt6i470y0DUgGDLCI6VE-1" source="tt6i470y0DUgGDLCI6VE-13" target="tt6i470y0DUgGDLCI6VE-23">
          <mxGeometry relative="1" as="geometry" />
        </mxCell>
        <mxCell id="tt6i470y0DUgGDLCI6VE-12" style="edgeStyle=orthogonalEdgeStyle;rounded=0;orthogonalLoop=1;jettySize=auto;html=1;entryX=0.5;entryY=0;entryDx=0;entryDy=0;entryPerimeter=0;fillColor=#f8cecc;strokeColor=#b85450;strokeWidth=2;" edge="1" parent="tt6i470y0DUgGDLCI6VE-1" source="tt6i470y0DUgGDLCI6VE-13" target="tt6i470y0DUgGDLCI6VE-27">
          <mxGeometry relative="1" as="geometry" />
        </mxCell>
        <mxCell id="OG4pr53s2dd90bSgwPJ0-5" value="JWT" style="edgeLabel;html=1;align=center;verticalAlign=middle;resizable=0;points=[];" vertex="1" connectable="0" parent="tt6i470y0DUgGDLCI6VE-12">
          <mxGeometry x="-0.1548" relative="1" as="geometry">
            <mxPoint as="offset" />
          </mxGeometry>
        </mxCell>
        <mxCell id="zYAENgjp94eRGcQaF9xb-6" style="edgeStyle=orthogonalEdgeStyle;rounded=0;orthogonalLoop=1;jettySize=auto;html=1;fillColor=#dae8fc;strokeColor=#0433ff;strokeWidth=2;" edge="1" parent="tt6i470y0DUgGDLCI6VE-1" source="tt6i470y0DUgGDLCI6VE-16" target="tt6i470y0DUgGDLCI6VE-10">
          <mxGeometry relative="1" as="geometry" />
        </mxCell>
        <mxCell id="OG4pr53s2dd90bSgwPJ0-4" value="JWT" style="edgeLabel;html=1;align=center;verticalAlign=middle;resizable=0;points=[];" vertex="1" connectable="0" parent="zYAENgjp94eRGcQaF9xb-6">
          <mxGeometry x="0.4888" y="-1" relative="1" as="geometry">
            <mxPoint x="1" as="offset" />
          </mxGeometry>
        </mxCell>
        <mxCell id="tt6i470y0DUgGDLCI6VE-13" value="Inventory ws" style="sketch=0;outlineConnect=0;fontColor=#232F3E;gradientColor=none;fillColor=#232F3D;strokeColor=none;dashed=0;verticalLabelPosition=bottom;verticalAlign=top;align=center;html=1;fontSize=12;fontStyle=0;aspect=fixed;pointerEvents=1;shape=mxgraph.aws4.traditional_server;" vertex="1" parent="tt6i470y0DUgGDLCI6VE-1">
          <mxGeometry x="720" y="277.5" width="45" height="78" as="geometry" />
        </mxCell>
        <mxCell id="tt6i470y0DUgGDLCI6VE-14" style="edgeStyle=orthogonalEdgeStyle;rounded=0;orthogonalLoop=1;jettySize=auto;html=1;startArrow=classic;startFill=1;" edge="1" parent="tt6i470y0DUgGDLCI6VE-1" source="tt6i470y0DUgGDLCI6VE-16" target="tt6i470y0DUgGDLCI6VE-24">
          <mxGeometry relative="1" as="geometry" />
        </mxCell>
        <mxCell id="tt6i470y0DUgGDLCI6VE-15" style="edgeStyle=orthogonalEdgeStyle;rounded=0;orthogonalLoop=1;jettySize=auto;html=1;entryX=0;entryY=0.5;entryDx=0;entryDy=0;entryPerimeter=0;fillColor=#f8cecc;strokeColor=#b85450;strokeWidth=2;" edge="1" parent="tt6i470y0DUgGDLCI6VE-1" source="tt6i470y0DUgGDLCI6VE-16" target="tt6i470y0DUgGDLCI6VE-27">
          <mxGeometry relative="1" as="geometry">
            <Array as="points">
              <mxPoint x="743" y="660" />
            </Array>
          </mxGeometry>
        </mxCell>
        <mxCell id="OG4pr53s2dd90bSgwPJ0-6" value="JWT" style="edgeLabel;html=1;align=center;verticalAlign=middle;resizable=0;points=[];" vertex="1" connectable="0" parent="tt6i470y0DUgGDLCI6VE-15">
          <mxGeometry x="-0.4886" y="1" relative="1" as="geometry">
            <mxPoint x="1" as="offset" />
          </mxGeometry>
        </mxCell>
        <mxCell id="tt6i470y0DUgGDLCI6VE-16" value="Order ws" style="sketch=0;outlineConnect=0;fontColor=#232F3E;gradientColor=none;fillColor=#232F3D;strokeColor=none;dashed=0;verticalLabelPosition=bottom;verticalAlign=top;align=center;html=1;fontSize=12;fontStyle=0;aspect=fixed;pointerEvents=1;shape=mxgraph.aws4.traditional_server;" vertex="1" parent="tt6i470y0DUgGDLCI6VE-1">
          <mxGeometry x="720" y="440" width="45" height="78" as="geometry" />
        </mxCell>
        <mxCell id="tt6i470y0DUgGDLCI6VE-17" value="" style="swimlane;startSize=0;" vertex="1" parent="tt6i470y0DUgGDLCI6VE-1">
          <mxGeometry x="420" y="70" width="400" height="530" as="geometry">
            <mxRectangle x="420" y="40" width="50" height="40" as="alternateBounds" />
          </mxGeometry>
        </mxCell>
        <mxCell id="tt6i470y0DUgGDLCI6VE-18" value="API gateway" style="sketch=0;points=[[0,0,0],[0.25,0,0],[0.5,0,0],[0.75,0,0],[1,0,0],[0,1,0],[0.25,1,0],[0.5,1,0],[0.75,1,0],[1,1,0],[0,0.25,0],[0,0.5,0],[0,0.75,0],[1,0.25,0],[1,0.5,0],[1,0.75,0]];outlineConnect=0;fontColor=#232F3E;gradientColor=#FF4F8B;gradientDirection=north;fillColor=#BC1356;strokeColor=#ffffff;dashed=0;verticalLabelPosition=bottom;verticalAlign=top;align=center;html=1;fontSize=12;fontStyle=0;aspect=fixed;shape=mxgraph.aws4.resourceIcon;resIcon=mxgraph.aws4.api_gateway;" vertex="1" parent="tt6i470y0DUgGDLCI6VE-17">
          <mxGeometry x="40" y="207.5" width="78" height="78" as="geometry" />
        </mxCell>
        <mxCell id="tt6i470y0DUgGDLCI6VE-19" value="API" style="text;html=1;align=center;verticalAlign=middle;resizable=0;points=[];autosize=1;strokeColor=none;fillColor=none;" vertex="1" parent="tt6i470y0DUgGDLCI6VE-1">
          <mxGeometry x="460" y="73" width="40" height="30" as="geometry" />
        </mxCell>
        <mxCell id="tt6i470y0DUgGDLCI6VE-20" value="" style="swimlane;startSize=0;" vertex="1" parent="tt6i470y0DUgGDLCI6VE-1">
          <mxGeometry x="920" y="40" width="204.69" height="550" as="geometry" />
        </mxCell>
        <mxCell id="tt6i470y0DUgGDLCI6VE-21" value="user db" style="image;aspect=fixed;perimeter=ellipsePerimeter;html=1;align=center;shadow=0;dashed=0;spacingTop=3;image=img/lib/active_directory/databases.svg;" vertex="1" parent="tt6i470y0DUgGDLCI6VE-20">
          <mxGeometry x="60" y="41" width="78.57" height="77" as="geometry" />
        </mxCell>
        <mxCell id="tt6i470y0DUgGDLCI6VE-22" value="DB" style="text;html=1;align=center;verticalAlign=middle;resizable=0;points=[];autosize=1;strokeColor=none;fillColor=none;" vertex="1" parent="tt6i470y0DUgGDLCI6VE-20">
          <mxGeometry x="20" y="8" width="40" height="30" as="geometry" />
        </mxCell>
        <mxCell id="tt6i470y0DUgGDLCI6VE-23" value="inventory db" style="image;aspect=fixed;perimeter=ellipsePerimeter;html=1;align=center;shadow=0;dashed=0;spacingTop=3;image=img/lib/active_directory/databases.svg;" vertex="1" parent="tt6i470y0DUgGDLCI6VE-20">
          <mxGeometry x="63.059999999999945" y="238" width="78.57" height="77" as="geometry" />
        </mxCell>
        <mxCell id="tt6i470y0DUgGDLCI6VE-24" value="order db" style="image;aspect=fixed;perimeter=ellipsePerimeter;html=1;align=center;shadow=0;dashed=0;spacingTop=3;image=img/lib/active_directory/databases.svg;" vertex="1" parent="tt6i470y0DUgGDLCI6VE-20">
          <mxGeometry x="70" y="400" width="78.57" height="77" as="geometry" />
        </mxCell>
        <mxCell id="tt6i470y0DUgGDLCI6VE-25" value="" style="swimlane;startSize=0;" vertex="1" parent="tt6i470y0DUgGDLCI6VE-1">
          <mxGeometry x="217.5" y="200" width="170" height="390" as="geometry">
            <mxRectangle x="420" y="40" width="50" height="40" as="alternateBounds" />
          </mxGeometry>
        </mxCell>
        <mxCell id="tt6i470y0DUgGDLCI6VE-26" value="Angular App" style="text;html=1;align=center;verticalAlign=middle;resizable=0;points=[];autosize=1;strokeColor=none;fillColor=none;" vertex="1" parent="tt6i470y0DUgGDLCI6VE-25">
          <mxGeometry x="32.5" y="8" width="90" height="30" as="geometry" />
        </mxCell>
        <mxCell id="tt6i470y0DUgGDLCI6VE-27" value="" style="sketch=0;aspect=fixed;pointerEvents=1;shadow=0;dashed=0;html=1;strokeColor=none;labelPosition=center;verticalLabelPosition=bottom;verticalAlign=top;align=center;fillColor=#00188D;shape=mxgraph.azure.queue_generic" vertex="1" parent="tt6i470y0DUgGDLCI6VE-1">
          <mxGeometry x="820" y="640" width="133.33" height="40" as="geometry" />
        </mxCell>
        <mxCell id="zYAENgjp94eRGcQaF9xb-1" value="" style="swimlane;startSize=0;" vertex="1" parent="tt6i470y0DUgGDLCI6VE-1">
          <mxGeometry x="217.5" y="10" width="170" height="110" as="geometry">
            <mxRectangle x="420" y="40" width="50" height="40" as="alternateBounds" />
          </mxGeometry>
        </mxCell>
        <mxCell id="zYAENgjp94eRGcQaF9xb-2" value="Keycloak" style="text;html=1;align=center;verticalAlign=middle;resizable=0;points=[];autosize=1;strokeColor=none;fillColor=none;" vertex="1" parent="zYAENgjp94eRGcQaF9xb-1">
          <mxGeometry x="42.5" y="8" width="70" height="30" as="geometry" />
        </mxCell>
        <mxCell id="zYAENgjp94eRGcQaF9xb-0" value="" style="shape=image;html=1;verticalAlign=top;verticalLabelPosition=bottom;labelBackgroundColor=#ffffff;imageAspect=0;aspect=fixed;image=https://cdn1.iconfinder.com/data/icons/nuvola2/48x48/actions/kgpg_identity.png" vertex="1" parent="zYAENgjp94eRGcQaF9xb-1">
          <mxGeometry x="61" y="40" width="48" height="48" as="geometry" />
        </mxCell>
      </root>
    </mxGraphModel>
  </diagram>
  <diagram name="scale-ability-added" id="oHFzwatP698lkWVHDsXi">
    <mxGraphModel dx="2603" dy="1521" grid="1" gridSize="10" guides="1" tooltips="1" connect="1" arrows="1" fold="1" page="1" pageScale="1" pageWidth="1169" pageHeight="827" math="0" shadow="0">
      <root>
        <mxCell id="d789-1BHOaT5ru0rKW_P-0" />
        <mxCell id="d789-1BHOaT5ru0rKW_P-1" parent="d789-1BHOaT5ru0rKW_P-0" />
        <mxCell id="d789-1BHOaT5ru0rKW_P-2" style="edgeStyle=orthogonalEdgeStyle;rounded=0;orthogonalLoop=1;jettySize=auto;html=1;startArrow=none;startFill=0;" edge="1" parent="d789-1BHOaT5ru0rKW_P-1" source="wN5hsZgsGqnveJxFsBK3-0" target="d789-1BHOaT5ru0rKW_P-8">
          <mxGeometry relative="1" as="geometry" />
        </mxCell>
        <mxCell id="d789-1BHOaT5ru0rKW_P-3" value="devices" style="sketch=0;outlineConnect=0;gradientColor=none;fontColor=#545B64;strokeColor=none;fillColor=#879196;dashed=0;verticalLabelPosition=bottom;verticalAlign=top;align=center;html=1;fontSize=12;fontStyle=0;aspect=fixed;shape=mxgraph.aws4.illustration_devices;pointerEvents=1" vertex="1" parent="d789-1BHOaT5ru0rKW_P-1">
          <mxGeometry x="-140" y="280" width="100" height="73" as="geometry" />
        </mxCell>
        <mxCell id="d789-1BHOaT5ru0rKW_P-4" style="edgeStyle=orthogonalEdgeStyle;rounded=0;orthogonalLoop=1;jettySize=auto;html=1;entryX=0;entryY=0.5;entryDx=0;entryDy=0;entryPerimeter=0;startArrow=classic;startFill=1;" edge="1" parent="d789-1BHOaT5ru0rKW_P-1" source="d789-1BHOaT5ru0rKW_P-8" target="d789-1BHOaT5ru0rKW_P-28">
          <mxGeometry relative="1" as="geometry" />
        </mxCell>
        <mxCell id="d789-1BHOaT5ru0rKW_P-5" value="JWT" style="edgeLabel;html=1;align=center;verticalAlign=middle;resizable=0;points=[];" vertex="1" connectable="0" parent="d789-1BHOaT5ru0rKW_P-4">
          <mxGeometry x="0.1562" relative="1" as="geometry">
            <mxPoint y="1" as="offset" />
          </mxGeometry>
        </mxCell>
        <mxCell id="d789-1BHOaT5ru0rKW_P-6" style="edgeStyle=orthogonalEdgeStyle;rounded=0;orthogonalLoop=1;jettySize=auto;html=1;entryX=0.5;entryY=1;entryDx=0;entryDy=0;startArrow=classic;startFill=1;fillColor=#e1d5e7;strokeColor=#9673a6;strokeWidth=2;exitX=0.5;exitY=0;exitDx=0;exitDy=0;" edge="1" parent="d789-1BHOaT5ru0rKW_P-1" source="d789-1BHOaT5ru0rKW_P-35" target="d789-1BHOaT5ru0rKW_P-38">
          <mxGeometry relative="1" as="geometry" />
        </mxCell>
        <mxCell id="d789-1BHOaT5ru0rKW_P-7" value="authorization" style="edgeLabel;html=1;align=center;verticalAlign=middle;resizable=0;points=[];" vertex="1" connectable="0" parent="d789-1BHOaT5ru0rKW_P-6">
          <mxGeometry x="0.5053" relative="1" as="geometry">
            <mxPoint x="1" as="offset" />
          </mxGeometry>
        </mxCell>
        <mxCell id="d789-1BHOaT5ru0rKW_P-8" value="Nginx" style="sketch=0;outlineConnect=0;fontColor=#232F3E;gradientColor=none;fillColor=#232F3D;strokeColor=none;dashed=0;verticalLabelPosition=bottom;verticalAlign=top;align=center;html=1;fontSize=12;fontStyle=0;aspect=fixed;pointerEvents=1;shape=mxgraph.aws4.traditional_server;" vertex="1" parent="d789-1BHOaT5ru0rKW_P-1">
          <mxGeometry x="280" y="277.5" width="45" height="78" as="geometry" />
        </mxCell>
        <mxCell id="d789-1BHOaT5ru0rKW_P-11" style="edgeStyle=orthogonalEdgeStyle;rounded=0;orthogonalLoop=1;jettySize=auto;html=1;startArrow=none;startFill=0;" edge="1" parent="d789-1BHOaT5ru0rKW_P-1" source="wN5hsZgsGqnveJxFsBK3-11" target="d789-1BHOaT5ru0rKW_P-22">
          <mxGeometry relative="1" as="geometry" />
        </mxCell>
        <mxCell id="d789-1BHOaT5ru0rKW_P-13" style="edgeStyle=orthogonalEdgeStyle;rounded=0;orthogonalLoop=1;jettySize=auto;html=1;exitX=0.5;exitY=1;exitDx=0;exitDy=0;exitPerimeter=0;startArrow=none;startFill=0;" edge="1" parent="d789-1BHOaT5ru0rKW_P-1" source="wN5hsZgsGqnveJxFsBK3-18" target="d789-1BHOaT5ru0rKW_P-26">
          <mxGeometry relative="1" as="geometry">
            <Array as="points">
              <mxPoint x="610" y="560" />
            </Array>
          </mxGeometry>
        </mxCell>
        <mxCell id="d789-1BHOaT5ru0rKW_P-14" value="JWT" style="edgeLabel;html=1;align=center;verticalAlign=middle;resizable=0;points=[];" vertex="1" connectable="0" parent="d789-1BHOaT5ru0rKW_P-13">
          <mxGeometry x="0.4194" y="-2" relative="1" as="geometry">
            <mxPoint x="1" as="offset" />
          </mxGeometry>
        </mxCell>
        <mxCell id="d789-1BHOaT5ru0rKW_P-15" style="edgeStyle=orthogonalEdgeStyle;rounded=0;orthogonalLoop=1;jettySize=auto;html=1;startArrow=none;startFill=0;" edge="1" parent="d789-1BHOaT5ru0rKW_P-1" source="d789-1BHOaT5ru0rKW_P-16" target="d789-1BHOaT5ru0rKW_P-31">
          <mxGeometry relative="1" as="geometry" />
        </mxCell>
        <mxCell id="d789-1BHOaT5ru0rKW_P-17" style="edgeStyle=orthogonalEdgeStyle;rounded=0;orthogonalLoop=1;jettySize=auto;html=1;startArrow=classic;startFill=1;" edge="1" parent="d789-1BHOaT5ru0rKW_P-1" source="d789-1BHOaT5ru0rKW_P-22" target="d789-1BHOaT5ru0rKW_P-33">
          <mxGeometry relative="1" as="geometry">
            <Array as="points">
              <mxPoint x="874" y="300" />
              <mxPoint x="874" y="277" />
            </Array>
          </mxGeometry>
        </mxCell>
        <mxCell id="d789-1BHOaT5ru0rKW_P-18" style="edgeStyle=orthogonalEdgeStyle;rounded=0;orthogonalLoop=1;jettySize=auto;html=1;entryX=0.5;entryY=0;entryDx=0;entryDy=0;entryPerimeter=0;fillColor=#f8cecc;strokeColor=#b85450;strokeWidth=2;" edge="1" parent="d789-1BHOaT5ru0rKW_P-1" source="d789-1BHOaT5ru0rKW_P-22" target="d789-1BHOaT5ru0rKW_P-37">
          <mxGeometry relative="1" as="geometry" />
        </mxCell>
        <mxCell id="d789-1BHOaT5ru0rKW_P-19" value="JWT" style="edgeLabel;html=1;align=center;verticalAlign=middle;resizable=0;points=[];" vertex="1" connectable="0" parent="d789-1BHOaT5ru0rKW_P-18">
          <mxGeometry x="-0.1548" relative="1" as="geometry">
            <mxPoint as="offset" />
          </mxGeometry>
        </mxCell>
        <mxCell id="d789-1BHOaT5ru0rKW_P-22" value="Inventory ws" style="sketch=0;outlineConnect=0;fontColor=#232F3E;gradientColor=none;fillColor=#232F3D;strokeColor=none;dashed=0;verticalLabelPosition=bottom;verticalAlign=top;align=center;html=1;fontSize=12;fontStyle=0;aspect=fixed;pointerEvents=1;shape=mxgraph.aws4.traditional_server;" vertex="1" parent="d789-1BHOaT5ru0rKW_P-1">
          <mxGeometry x="720" y="277.5" width="45" height="78" as="geometry" />
        </mxCell>
        <mxCell id="d789-1BHOaT5ru0rKW_P-23" style="edgeStyle=orthogonalEdgeStyle;rounded=0;orthogonalLoop=1;jettySize=auto;html=1;startArrow=classic;startFill=1;" edge="1" parent="d789-1BHOaT5ru0rKW_P-1" source="d789-1BHOaT5ru0rKW_P-26" target="d789-1BHOaT5ru0rKW_P-34">
          <mxGeometry relative="1" as="geometry" />
        </mxCell>
        <mxCell id="d789-1BHOaT5ru0rKW_P-24" style="edgeStyle=orthogonalEdgeStyle;rounded=0;orthogonalLoop=1;jettySize=auto;html=1;entryX=0;entryY=0.5;entryDx=0;entryDy=0;entryPerimeter=0;fillColor=#f8cecc;strokeColor=#b85450;strokeWidth=2;" edge="1" parent="d789-1BHOaT5ru0rKW_P-1" source="d789-1BHOaT5ru0rKW_P-26" target="d789-1BHOaT5ru0rKW_P-37">
          <mxGeometry relative="1" as="geometry">
            <Array as="points">
              <mxPoint x="743" y="660" />
            </Array>
          </mxGeometry>
        </mxCell>
        <mxCell id="d789-1BHOaT5ru0rKW_P-25" value="JWT" style="edgeLabel;html=1;align=center;verticalAlign=middle;resizable=0;points=[];" vertex="1" connectable="0" parent="d789-1BHOaT5ru0rKW_P-24">
          <mxGeometry x="-0.4886" y="1" relative="1" as="geometry">
            <mxPoint x="1" as="offset" />
          </mxGeometry>
        </mxCell>
        <mxCell id="d789-1BHOaT5ru0rKW_P-27" value="" style="swimlane;startSize=0;" vertex="1" parent="d789-1BHOaT5ru0rKW_P-1">
          <mxGeometry x="410" y="-100" width="400" height="740" as="geometry">
            <mxRectangle x="420" y="40" width="50" height="40" as="alternateBounds" />
          </mxGeometry>
        </mxCell>
        <mxCell id="d789-1BHOaT5ru0rKW_P-28" value="API gateway" style="sketch=0;points=[[0,0,0],[0.25,0,0],[0.5,0,0],[0.75,0,0],[1,0,0],[0,1,0],[0.25,1,0],[0.5,1,0],[0.75,1,0],[1,1,0],[0,0.25,0],[0,0.5,0],[0,0.75,0],[1,0.25,0],[1,0.5,0],[1,0.75,0]];outlineConnect=0;fontColor=#232F3E;gradientColor=#FF4F8B;gradientDirection=north;fillColor=#BC1356;strokeColor=#ffffff;dashed=0;verticalLabelPosition=bottom;verticalAlign=top;align=center;html=1;fontSize=12;fontStyle=0;aspect=fixed;shape=mxgraph.aws4.resourceIcon;resIcon=mxgraph.aws4.api_gateway;" vertex="1" parent="d789-1BHOaT5ru0rKW_P-27">
          <mxGeometry x="11" y="377.5" width="78" height="78" as="geometry" />
        </mxCell>
        <mxCell id="d789-1BHOaT5ru0rKW_P-16" value="User ws" style="sketch=0;outlineConnect=0;fillColor=#0042aa;strokeColor=#6c8ebf;dashed=0;verticalLabelPosition=bottom;verticalAlign=top;align=center;html=1;fontSize=12;fontStyle=0;aspect=fixed;pointerEvents=1;shape=mxgraph.aws4.traditional_server;gradientColor=none;" vertex="1" parent="d789-1BHOaT5ru0rKW_P-27">
          <mxGeometry x="300" y="29" width="45" height="78" as="geometry" />
        </mxCell>
        <mxCell id="wN5hsZgsGqnveJxFsBK3-9" value="User ws" style="sketch=0;outlineConnect=0;fillColor=#0042aa;strokeColor=#6c8ebf;dashed=0;verticalLabelPosition=bottom;verticalAlign=top;align=center;html=1;fontSize=12;fontStyle=0;aspect=fixed;pointerEvents=1;shape=mxgraph.aws4.traditional_server;gradientColor=none;" vertex="1" parent="d789-1BHOaT5ru0rKW_P-27">
          <mxGeometry x="300" y="140" width="45" height="78" as="geometry" />
        </mxCell>
        <mxCell id="wN5hsZgsGqnveJxFsBK3-6" value="" style="sketch=0;outlineConnect=0;fontColor=#232F3E;gradientColor=none;fillColor=#4D27AA;strokeColor=none;dashed=0;verticalLabelPosition=bottom;verticalAlign=top;align=center;html=1;fontSize=12;fontStyle=0;aspect=fixed;pointerEvents=1;shape=mxgraph.aws4.application_load_balancer;" vertex="1" parent="d789-1BHOaT5ru0rKW_P-27">
          <mxGeometry x="161" y="140" width="78" height="78" as="geometry" />
        </mxCell>
        <mxCell id="wN5hsZgsGqnveJxFsBK3-7" value="" style="edgeStyle=elbowEdgeStyle;rounded=0;orthogonalLoop=1;jettySize=auto;html=1;exitX=0.5;exitY=0;exitDx=0;exitDy=0;exitPerimeter=0;startArrow=none;startFill=0;" edge="1" parent="d789-1BHOaT5ru0rKW_P-27" source="d789-1BHOaT5ru0rKW_P-28" target="wN5hsZgsGqnveJxFsBK3-6">
          <mxGeometry relative="1" as="geometry">
            <Array as="points">
              <mxPoint x="50" y="290" />
            </Array>
            <mxPoint x="79" y="378" as="sourcePoint" />
            <mxPoint x="300" y="219" as="targetPoint" />
          </mxGeometry>
        </mxCell>
        <mxCell id="d789-1BHOaT5ru0rKW_P-9" style="edgeStyle=elbowEdgeStyle;rounded=0;orthogonalLoop=1;jettySize=auto;html=1;startArrow=none;startFill=0;" edge="1" parent="d789-1BHOaT5ru0rKW_P-27" source="wN5hsZgsGqnveJxFsBK3-6" target="d789-1BHOaT5ru0rKW_P-16">
          <mxGeometry relative="1" as="geometry">
            <Array as="points">
              <mxPoint x="200" y="110" />
            </Array>
          </mxGeometry>
        </mxCell>
        <mxCell id="d789-1BHOaT5ru0rKW_P-10" value="JWT" style="edgeLabel;html=1;align=center;verticalAlign=middle;resizable=0;points=[];" vertex="1" connectable="0" parent="d789-1BHOaT5ru0rKW_P-9">
          <mxGeometry x="0.3834" y="2" relative="1" as="geometry">
            <mxPoint as="offset" />
          </mxGeometry>
        </mxCell>
        <mxCell id="wN5hsZgsGqnveJxFsBK3-10" style="edgeStyle=orthogonalEdgeStyle;rounded=0;orthogonalLoop=1;jettySize=auto;html=1;" edge="1" parent="d789-1BHOaT5ru0rKW_P-27" source="wN5hsZgsGqnveJxFsBK3-6" target="wN5hsZgsGqnveJxFsBK3-9">
          <mxGeometry relative="1" as="geometry" />
        </mxCell>
        <mxCell id="d789-1BHOaT5ru0rKW_P-29" value="API" style="text;html=1;align=center;verticalAlign=middle;resizable=0;points=[];autosize=1;strokeColor=none;fillColor=none;" vertex="1" parent="d789-1BHOaT5ru0rKW_P-27">
          <mxGeometry x="30" y="10" width="40" height="30" as="geometry" />
        </mxCell>
        <mxCell id="wN5hsZgsGqnveJxFsBK3-16" style="edgeStyle=orthogonalEdgeStyle;rounded=0;orthogonalLoop=1;jettySize=auto;html=1;" edge="1" parent="d789-1BHOaT5ru0rKW_P-27" source="wN5hsZgsGqnveJxFsBK3-11" target="wN5hsZgsGqnveJxFsBK3-15">
          <mxGeometry relative="1" as="geometry">
            <Array as="points">
              <mxPoint x="200" y="310" />
            </Array>
          </mxGeometry>
        </mxCell>
        <mxCell id="wN5hsZgsGqnveJxFsBK3-11" value="" style="sketch=0;outlineConnect=0;fontColor=#232F3E;gradientColor=none;fillColor=#4D27AA;strokeColor=none;dashed=0;verticalLabelPosition=bottom;verticalAlign=top;align=center;html=1;fontSize=12;fontStyle=0;aspect=fixed;pointerEvents=1;shape=mxgraph.aws4.application_load_balancer;" vertex="1" parent="d789-1BHOaT5ru0rKW_P-27">
          <mxGeometry x="161" y="377.5" width="78" height="78" as="geometry" />
        </mxCell>
        <mxCell id="wN5hsZgsGqnveJxFsBK3-12" value="" style="edgeStyle=orthogonalEdgeStyle;rounded=0;orthogonalLoop=1;jettySize=auto;html=1;startArrow=none;startFill=0;" edge="1" parent="d789-1BHOaT5ru0rKW_P-27" source="d789-1BHOaT5ru0rKW_P-28" target="wN5hsZgsGqnveJxFsBK3-11">
          <mxGeometry relative="1" as="geometry">
            <mxPoint x="118" y="417" as="sourcePoint" />
            <mxPoint x="310" y="417" as="targetPoint" />
          </mxGeometry>
        </mxCell>
        <mxCell id="wN5hsZgsGqnveJxFsBK3-13" value="JWT" style="edgeLabel;html=1;align=center;verticalAlign=middle;resizable=0;points=[];" vertex="1" connectable="0" parent="wN5hsZgsGqnveJxFsBK3-12">
          <mxGeometry x="-0.1323" y="-1" relative="1" as="geometry">
            <mxPoint y="1" as="offset" />
          </mxGeometry>
        </mxCell>
        <mxCell id="wN5hsZgsGqnveJxFsBK3-15" value="Inventory ws" style="sketch=0;outlineConnect=0;fontColor=#232F3E;gradientColor=none;fillColor=#232F3D;strokeColor=none;dashed=0;verticalLabelPosition=bottom;verticalAlign=top;align=center;html=1;fontSize=12;fontStyle=0;aspect=fixed;pointerEvents=1;shape=mxgraph.aws4.traditional_server;" vertex="1" parent="d789-1BHOaT5ru0rKW_P-27">
          <mxGeometry x="310" y="270" width="45" height="78" as="geometry" />
        </mxCell>
        <mxCell id="d789-1BHOaT5ru0rKW_P-26" value="Order ws" style="sketch=0;outlineConnect=0;fillColor=#791a3e;strokeColor=#b85450;dashed=0;verticalLabelPosition=bottom;verticalAlign=top;align=center;html=1;fontSize=12;fontStyle=0;aspect=fixed;pointerEvents=1;shape=mxgraph.aws4.traditional_server;" vertex="1" parent="d789-1BHOaT5ru0rKW_P-27">
          <mxGeometry x="310" y="610" width="45" height="78" as="geometry" />
        </mxCell>
        <mxCell id="d789-1BHOaT5ru0rKW_P-20" style="edgeStyle=orthogonalEdgeStyle;rounded=0;orthogonalLoop=1;jettySize=auto;html=1;fillColor=#dae8fc;strokeColor=#0433ff;strokeWidth=2;" edge="1" parent="d789-1BHOaT5ru0rKW_P-27" source="d789-1BHOaT5ru0rKW_P-26" target="wN5hsZgsGqnveJxFsBK3-6">
          <mxGeometry relative="1" as="geometry">
            <Array as="points">
              <mxPoint x="180" y="579" />
            </Array>
          </mxGeometry>
        </mxCell>
        <mxCell id="d789-1BHOaT5ru0rKW_P-21" value="JWT" style="edgeLabel;html=1;align=center;verticalAlign=middle;resizable=0;points=[];" vertex="1" connectable="0" parent="d789-1BHOaT5ru0rKW_P-20">
          <mxGeometry x="0.4888" y="-1" relative="1" as="geometry">
            <mxPoint x="1" as="offset" />
          </mxGeometry>
        </mxCell>
        <mxCell id="wN5hsZgsGqnveJxFsBK3-21" value="Order ws" style="sketch=0;outlineConnect=0;fillColor=#791a3e;strokeColor=#b85450;dashed=0;verticalLabelPosition=bottom;verticalAlign=top;align=center;html=1;fontSize=12;fontStyle=0;aspect=fixed;pointerEvents=1;shape=mxgraph.aws4.traditional_server;" vertex="1" parent="d789-1BHOaT5ru0rKW_P-27">
          <mxGeometry x="310" y="500" width="45" height="78" as="geometry" />
        </mxCell>
        <mxCell id="d789-1BHOaT5ru0rKW_P-30" value="" style="swimlane;startSize=0;" vertex="1" parent="d789-1BHOaT5ru0rKW_P-1">
          <mxGeometry x="920" width="204.69" height="590" as="geometry" />
        </mxCell>
        <mxCell id="d789-1BHOaT5ru0rKW_P-31" value="user db" style="image;aspect=fixed;perimeter=ellipsePerimeter;html=1;align=center;shadow=0;dashed=0;spacingTop=3;image=img/lib/active_directory/databases.svg;" vertex="1" parent="d789-1BHOaT5ru0rKW_P-30">
          <mxGeometry x="63.06" y="41" width="78.57" height="77" as="geometry" />
        </mxCell>
        <mxCell id="d789-1BHOaT5ru0rKW_P-32" value="DB" style="text;html=1;align=center;verticalAlign=middle;resizable=0;points=[];autosize=1;strokeColor=none;fillColor=none;" vertex="1" parent="d789-1BHOaT5ru0rKW_P-30">
          <mxGeometry x="20" y="8" width="40" height="30" as="geometry" />
        </mxCell>
        <mxCell id="d789-1BHOaT5ru0rKW_P-33" value="inventory db" style="image;aspect=fixed;perimeter=ellipsePerimeter;html=1;align=center;shadow=0;dashed=0;spacingTop=3;image=img/lib/active_directory/databases.svg;" vertex="1" parent="d789-1BHOaT5ru0rKW_P-30">
          <mxGeometry x="59.99999999999994" y="220" width="78.57" height="77" as="geometry" />
        </mxCell>
        <mxCell id="d789-1BHOaT5ru0rKW_P-34" value="order db" style="image;aspect=fixed;perimeter=ellipsePerimeter;html=1;align=center;shadow=0;dashed=0;spacingTop=3;image=img/lib/active_directory/databases.svg;imageBackground=none;" vertex="1" parent="d789-1BHOaT5ru0rKW_P-30">
          <mxGeometry x="70" y="400" width="78.57" height="77" as="geometry" />
        </mxCell>
        <mxCell id="d789-1BHOaT5ru0rKW_P-35" value="" style="swimlane;startSize=0;" vertex="1" parent="d789-1BHOaT5ru0rKW_P-1">
          <mxGeometry x="217.5" y="90" width="170" height="500" as="geometry">
            <mxRectangle x="420" y="40" width="50" height="40" as="alternateBounds" />
          </mxGeometry>
        </mxCell>
        <mxCell id="d789-1BHOaT5ru0rKW_P-36" value="Angular App" style="text;html=1;align=center;verticalAlign=middle;resizable=0;points=[];autosize=1;strokeColor=none;fillColor=none;" vertex="1" parent="d789-1BHOaT5ru0rKW_P-35">
          <mxGeometry x="32.5" y="8" width="90" height="30" as="geometry" />
        </mxCell>
        <mxCell id="wN5hsZgsGqnveJxFsBK3-2" value="Nginx" style="sketch=0;outlineConnect=0;fontColor=#232F3E;gradientColor=none;fillColor=#232F3D;strokeColor=none;dashed=0;verticalLabelPosition=bottom;verticalAlign=top;align=center;html=1;fontSize=12;fontStyle=0;aspect=fixed;pointerEvents=1;shape=mxgraph.aws4.traditional_server;" vertex="1" parent="d789-1BHOaT5ru0rKW_P-35">
          <mxGeometry x="62.5" y="310" width="45" height="78" as="geometry" />
        </mxCell>
        <mxCell id="wN5hsZgsGqnveJxFsBK3-4" value="Nginx" style="sketch=0;outlineConnect=0;fontColor=#232F3E;gradientColor=none;fillColor=#232F3D;strokeColor=none;dashed=0;verticalLabelPosition=bottom;verticalAlign=top;align=center;html=1;fontSize=12;fontStyle=0;aspect=fixed;pointerEvents=1;shape=mxgraph.aws4.traditional_server;" vertex="1" parent="d789-1BHOaT5ru0rKW_P-35">
          <mxGeometry x="62.5" y="60" width="45" height="78" as="geometry" />
        </mxCell>
        <mxCell id="d789-1BHOaT5ru0rKW_P-37" value="" style="sketch=0;aspect=fixed;pointerEvents=1;shadow=0;dashed=0;html=1;strokeColor=none;labelPosition=center;verticalLabelPosition=bottom;verticalAlign=top;align=center;fillColor=#00188D;shape=mxgraph.azure.queue_generic" vertex="1" parent="d789-1BHOaT5ru0rKW_P-1">
          <mxGeometry x="820" y="640" width="133.33" height="40" as="geometry" />
        </mxCell>
        <mxCell id="d789-1BHOaT5ru0rKW_P-38" value="" style="swimlane;startSize=0;" vertex="1" parent="d789-1BHOaT5ru0rKW_P-1">
          <mxGeometry x="217.5" y="-110" width="170" height="110" as="geometry">
            <mxRectangle x="420" y="40" width="50" height="40" as="alternateBounds" />
          </mxGeometry>
        </mxCell>
        <mxCell id="d789-1BHOaT5ru0rKW_P-39" value="Keycloak" style="text;html=1;align=center;verticalAlign=middle;resizable=0;points=[];autosize=1;strokeColor=none;fillColor=none;" vertex="1" parent="d789-1BHOaT5ru0rKW_P-38">
          <mxGeometry x="42.5" y="8" width="70" height="30" as="geometry" />
        </mxCell>
        <mxCell id="d789-1BHOaT5ru0rKW_P-40" value="" style="shape=image;html=1;verticalAlign=top;verticalLabelPosition=bottom;labelBackgroundColor=#ffffff;imageAspect=0;aspect=fixed;image=https://cdn1.iconfinder.com/data/icons/nuvola2/48x48/actions/kgpg_identity.png" vertex="1" parent="d789-1BHOaT5ru0rKW_P-38">
          <mxGeometry x="61" y="40" width="48" height="48" as="geometry" />
        </mxCell>
        <mxCell id="wN5hsZgsGqnveJxFsBK3-1" value="" style="edgeStyle=orthogonalEdgeStyle;rounded=0;orthogonalLoop=1;jettySize=auto;html=1;startArrow=classic;startFill=1;" edge="1" parent="d789-1BHOaT5ru0rKW_P-1" source="d789-1BHOaT5ru0rKW_P-3" target="wN5hsZgsGqnveJxFsBK3-0">
          <mxGeometry relative="1" as="geometry">
            <mxPoint x="-40" y="317" as="sourcePoint" />
            <mxPoint x="280" y="317" as="targetPoint" />
          </mxGeometry>
        </mxCell>
        <mxCell id="wN5hsZgsGqnveJxFsBK3-3" style="edgeStyle=orthogonalEdgeStyle;rounded=0;orthogonalLoop=1;jettySize=auto;html=1;" edge="1" parent="d789-1BHOaT5ru0rKW_P-1" source="wN5hsZgsGqnveJxFsBK3-0" target="wN5hsZgsGqnveJxFsBK3-2">
          <mxGeometry relative="1" as="geometry">
            <Array as="points">
              <mxPoint x="81" y="439" />
            </Array>
          </mxGeometry>
        </mxCell>
        <mxCell id="wN5hsZgsGqnveJxFsBK3-5" style="edgeStyle=orthogonalEdgeStyle;rounded=0;orthogonalLoop=1;jettySize=auto;html=1;" edge="1" parent="d789-1BHOaT5ru0rKW_P-1" source="wN5hsZgsGqnveJxFsBK3-0" target="wN5hsZgsGqnveJxFsBK3-4">
          <mxGeometry relative="1" as="geometry">
            <Array as="points">
              <mxPoint x="81" y="190" />
            </Array>
          </mxGeometry>
        </mxCell>
        <mxCell id="wN5hsZgsGqnveJxFsBK3-0" value="" style="sketch=0;outlineConnect=0;fontColor=#232F3E;gradientColor=none;fillColor=#4D27AA;strokeColor=none;dashed=0;verticalLabelPosition=bottom;verticalAlign=top;align=center;html=1;fontSize=12;fontStyle=0;aspect=fixed;pointerEvents=1;shape=mxgraph.aws4.application_load_balancer;" vertex="1" parent="d789-1BHOaT5ru0rKW_P-1">
          <mxGeometry x="40" y="275.25" width="82.5" height="82.5" as="geometry" />
        </mxCell>
        <mxCell id="wN5hsZgsGqnveJxFsBK3-14" style="edgeStyle=orthogonalEdgeStyle;rounded=0;orthogonalLoop=1;jettySize=auto;html=1;entryX=0;entryY=0.5;entryDx=0;entryDy=0;" edge="1" parent="d789-1BHOaT5ru0rKW_P-1" source="wN5hsZgsGqnveJxFsBK3-9" target="d789-1BHOaT5ru0rKW_P-31">
          <mxGeometry relative="1" as="geometry" />
        </mxCell>
        <mxCell id="wN5hsZgsGqnveJxFsBK3-17" style="edgeStyle=orthogonalEdgeStyle;rounded=0;orthogonalLoop=1;jettySize=auto;html=1;entryX=0;entryY=0.25;entryDx=0;entryDy=0;" edge="1" parent="d789-1BHOaT5ru0rKW_P-1" source="wN5hsZgsGqnveJxFsBK3-15" target="d789-1BHOaT5ru0rKW_P-33">
          <mxGeometry relative="1" as="geometry" />
        </mxCell>
        <mxCell id="wN5hsZgsGqnveJxFsBK3-19" value="" style="edgeStyle=orthogonalEdgeStyle;rounded=0;orthogonalLoop=1;jettySize=auto;html=1;exitX=0.5;exitY=1;exitDx=0;exitDy=0;exitPerimeter=0;startArrow=none;startFill=0;" edge="1" parent="d789-1BHOaT5ru0rKW_P-1" source="d789-1BHOaT5ru0rKW_P-28" target="wN5hsZgsGqnveJxFsBK3-18">
          <mxGeometry relative="1" as="geometry">
            <Array as="points">
              <mxPoint x="460" y="499" />
            </Array>
            <mxPoint x="460" y="356" as="sourcePoint" />
            <mxPoint x="720" y="500" as="targetPoint" />
          </mxGeometry>
        </mxCell>
        <mxCell id="wN5hsZgsGqnveJxFsBK3-22" style="edgeStyle=orthogonalEdgeStyle;rounded=0;orthogonalLoop=1;jettySize=auto;html=1;" edge="1" parent="d789-1BHOaT5ru0rKW_P-1" source="wN5hsZgsGqnveJxFsBK3-18" target="wN5hsZgsGqnveJxFsBK3-21">
          <mxGeometry relative="1" as="geometry">
            <Array as="points">
              <mxPoint x="610" y="439" />
            </Array>
          </mxGeometry>
        </mxCell>
        <mxCell id="wN5hsZgsGqnveJxFsBK3-18" value="" style="sketch=0;outlineConnect=0;fontColor=#232F3E;gradientColor=none;fillColor=#4D27AA;strokeColor=none;dashed=0;verticalLabelPosition=bottom;verticalAlign=top;align=center;html=1;fontSize=12;fontStyle=0;aspect=fixed;pointerEvents=1;shape=mxgraph.aws4.application_load_balancer;" vertex="1" parent="d789-1BHOaT5ru0rKW_P-1">
          <mxGeometry x="571" y="460" width="78" height="78" as="geometry" />
        </mxCell>
        <mxCell id="wN5hsZgsGqnveJxFsBK3-23" style="edgeStyle=orthogonalEdgeStyle;rounded=0;orthogonalLoop=1;jettySize=auto;html=1;" edge="1" parent="d789-1BHOaT5ru0rKW_P-1" source="wN5hsZgsGqnveJxFsBK3-21" target="d789-1BHOaT5ru0rKW_P-34">
          <mxGeometry relative="1" as="geometry" />
        </mxCell>
      </root>
    </mxGraphModel>
  </diagram>
</mxfile>
